<svg xmlns="http://www.w3.org/2000/svg" viewBox="0 0 64 64">
  <defs>
    <linearGradient id="bg" x1="0" y1="0" x2="1" y2="1">
      <stop offset="0%" stop-color="#1f4d3a" />
      <stop offset="100%" stop-color="#163629" />
    </linearGradient>
  </defs>
  <circle cx="32" cy="32" r="30" fill="url(#bg)" />
  <path
    d="M24 44c0-8 6-14 14-14 1.1 0 2.2.1 3.2.4-1.6-3.9-5.5-6.7-10-6.7-6 0-10.8 4.8-10.8 10.8 0 3.9 2 7.4 5 9.5.8.1 1.7 0 2.6 0z"
    fill="#f1c75b"
  />
  <path
    d="M34 46c6.6 0 12-5.4 12-12 0-1.8-.4-3.5-1.1-5-4.7.8-8.7 4.1-10.4 8.6-.8 2-.9 4.1-.5 6.2z"
    fill="#7abf74"
  />
  <circle cx="32" cy="32" r="30" fill="none" stroke="#f1c75b" stroke-width="2" />
</svg>
